<?xml version="1.0" encoding="utf-8"?>
<!-- Generator: Adobe Illustrator 26.1.0, SVG Export Plug-In . SVG Version: 6.00 Build 0)  -->
<svg version="1.1" id="Layer_1" xmlns="http://www.w3.org/2000/svg" xmlns:xlink="http://www.w3.org/1999/xlink" x="0px" y="0px"
	 viewBox="0 0 16 16" style="enable-background:new 0 0 16 16;" xml:space="preserve">
<style type="text/css">
	.st0{stroke:#FFFFFF;stroke-width:0.3779;stroke-miterlimit:10;}
</style>
<g>
	<path class="st0" d="M10.7,5.1c-1,0-1.5,0.2-1.5,0.7v7.8h2.4c0.6,0,1-0.2,1.4-0.7c0.3-0.4,0.5-1.2,0.6-2.3l1.2,0.1l-0.3,4.4H5.1
		v-1.3c0.8,0,1.2-0.2,1.2-0.7V5.8c0-0.5-0.4-0.7-1.2-0.7V3.8h5.5V5.1z"/>
</g>
<g>
	<path class="st0" d="M6.8,2.1c-1,0-1.5,0.2-1.5,0.7v7.8h2.4c0.6,0,1-0.2,1.4-0.7c0.3-0.4,0.5-1.2,0.6-2.3l1.2,0.1l-0.3,4.4H1.3
		v-1.3c0.8,0,1.2-0.2,1.2-0.7V2.8c0-0.5-0.4-0.7-1.2-0.7V0.8h5.5V2.1z"/>
</g>
</svg>
